<?xml version="1.0" encoding="UTF-8"?> <svg xmlns="http://www.w3.org/2000/svg" xmlns:xlink="http://www.w3.org/1999/xlink" version="1.1" id="Layer_1" x="0px" y="0px" viewBox="0 0 600 600" style="enable-background:new 0 0 600 600;" xml:space="preserve"> <style type="text/css"> .st0{fill:#FFFFFF;} </style> <g> <path class="st0" d="M175.9,550.4c-0.9,0-1.7-0.4-2.2-1.1L12,320.3c-0.6-0.8-0.7-1.8-0.2-2.7L128.9,62.9c0.4-0.9,1.2-1.5,2.2-1.6 l278.7-25.8c1-0.1,1.9,0.3,2.5,1.1l161.7,228.9c0.6,0.8,0.7,1.8,0.2,2.7L457.1,523.1c-0.4,0.9-1.2,1.5-2.2,1.6l-278.7,25.8 C176.1,550.4,176,550.4,175.9,550.4z M17.4,318.5l159.9,226.4l275.6-25.5l115.8-251.9L408.8,41.1L133.1,66.6L17.4,318.5z M454.6,521.9L454.6,521.9L454.6,521.9z"></path> <path class="st0" d="M174.9,549.8l-44.7-232.9L130,62.2l218,64.2L574,267L406.1,416.2L174.9,549.8z M132.7,65.9l0.2,250.8l44,228.9 l227.7-131.5l164.9-146.7L346.7,128.8L132.7,65.9z"></path> <g> <ellipse class="st0" cx="351.5" cy="129" rx="8.1" ry="8.1"></ellipse> <path class="st0" d="M351.5,145.7c-9.2,0-16.7-7.5-16.7-16.8c0-9.2,7.5-16.7,16.7-16.7c9.2,0,16.7,7.5,16.7,16.7 C368.3,138.2,360.8,145.7,351.5,145.7z M351.5,128.5L351,129c0,0.3,0.2,0.5,0.5,0.5V128.5z"></path> </g> <g> <ellipse class="st0" cx="405.7" cy="414.7" rx="8.1" ry="8.1"></ellipse> <path class="st0" d="M405.7,431.5c-9.2,0-16.7-7.5-16.7-16.8c0-9.2,7.5-16.8,16.7-16.8s16.7,7.5,16.7,16.8 C422.5,424,414.9,431.5,405.7,431.5z M405.7,414.3l-0.5,0.5c0,0.3,0.2,0.5,0.5,0.5V414.3z"></path> </g> <g> <ellipse class="st0" cx="177.9" cy="547.7" rx="8.1" ry="8.1"></ellipse> <path class="st0" d="M177.9,564.5c-9.2,0-16.7-7.5-16.7-16.8s7.5-16.8,16.7-16.8c9.2,0,16.7,7.5,16.7,16.8 S187.1,564.5,177.9,564.5z M177.9,547.2l-0.5,0.5c0,0.3,0.2,0.5,0.5,0.5V547.2z"></path> </g> <g> <ellipse class="st0" cx="131.3" cy="319.3" rx="8.1" ry="8.1"></ellipse> <path class="st0" d="M131.3,336.1c-9.2,0-16.7-7.5-16.7-16.7c0-9.2,7.5-16.8,16.7-16.8s16.7,7.5,16.7,16.8 C148.1,328.6,140.6,336.1,131.3,336.1z M131.3,318.9l-0.5,0.5c0,0.3,0.2,0.5,0.5,0.5V318.9z"></path> </g> <g> <ellipse class="st0" cx="571.7" cy="267.6" rx="8.1" ry="8.1"></ellipse> <path class="st0" d="M571.7,284.4c-9.2,0-16.7-7.5-16.7-16.7c0-9.2,7.5-16.8,16.7-16.8s16.7,7.5,16.7,16.8 C588.5,276.8,581,284.4,571.7,284.4z M571.7,267.1l-0.5,0.5c0,0.3,0.2,0.5,0.5,0.5V267.1z"></path> </g> <g> <ellipse class="st0" cx="131.3" cy="64" rx="8.1" ry="8.1"></ellipse> <path class="st0" d="M131.3,80.8c-9.2,0-16.7-7.5-16.7-16.8c0-9.2,7.5-16.7,16.7-16.7s16.7,7.5,16.7,16.7 C148.1,73.3,140.6,80.8,131.3,80.8z M131.3,63.6l-0.5,0.5c0,0.3,0.2,0.5,0.5,0.5V63.6z"></path> </g> <path class="st0" d="M454.6,524.6c-0.3,0-0.6,0-0.9-0.2l-212.5-75L12.9,321.1c-0.8-0.4-1.3-1.2-1.4-2c-0.1-0.9,0.2-1.7,0.9-2.3 l171.8-157.4L408.8,35.9c0.7-0.4,1.6-0.4,2.4-0.1c0.8,0.4,1.3,1,1.5,1.9L463,258.9L457.4,522c0,0.9-0.5,1.7-1.2,2.2 C455.7,524.5,455.2,524.6,454.6,524.6z M18.8,318.2l224.6,126.3L452,518.1l5.7-258.7L408.2,42.4L187.3,163.7L18.8,318.2z"></path> <path class="st0" d="M406.6,415.8l-1.1-0.4L130,319.6l0.9-0.8L352,127.7L406.6,415.8z M132.7,319.1l272.2,94.6l-53.8-283.5 L132.7,319.1z"></path> <path class="st0" d="M240.4,452l-57.9-294.8l283.3,101.3L240.4,452z M189.6,165.5l54.3,276.3l211.2-181.4L189.6,165.5z"></path> <rect x="156" y="56.9" transform="matrix(0.8718 -0.4898 0.4898 0.8718 -34.8688 92.1599)" class="st0" width="5.4" height="111.6"></rect> <polygon class="st0" points="180.2,549.2 175.6,546.2 239.8,445.4 244.4,448.4 "></polygon> <rect x="513.4" y="207.7" transform="matrix(7.285900e-02 -0.9973 0.9973 7.285900e-02 215.6208 759.0336)" class="st0" width="5.4" height="111.6"></rect> </g> </svg> 